<svg width="48" height="48" viewBox="0 0 48 48" fill="none" xmlns="http://www.w3.org/2000/svg">
<circle cx="24" cy="24" r="23.5" stroke="#FFF9F0"/>
<path d="M30 15.5338C30 15.3939 29.9425 15.2597 29.8402 15.1608C29.7379 15.0618 29.5992 15.0062 29.4545 15.0062H26.7273C25.354 14.9401 24.0094 15.4024 22.9873 16.2921C21.9653 17.1818 21.3489 18.4267 21.2727 19.7547V22.6037H18.5455C18.4008 22.6037 18.2621 22.6593 18.1598 22.7583C18.0575 22.8572 18 22.9914 18 23.1313V25.8749C18 26.0148 18.0575 26.149 18.1598 26.248C18.2621 26.3469 18.4008 26.4025 18.5455 26.4025H21.2727V33.4724C21.2727 33.6123 21.3302 33.7465 21.4325 33.8455C21.5348 33.9444 21.6735 34 21.8182 34H25.0909C25.2356 34 25.3743 33.9444 25.4766 33.8455C25.5789 33.7465 25.6364 33.6123 25.6364 33.4724V26.4025H28.4945C28.6158 26.4042 28.7343 26.3667 28.8311 26.296C28.9279 26.2253 28.9976 26.1254 29.0291 26.0121L29.8145 23.2685C29.8362 23.1906 29.8392 23.1088 29.8231 23.0296C29.807 22.9504 29.7723 22.8758 29.7217 22.8116C29.6711 22.7474 29.606 22.6952 29.5313 22.6592C29.4566 22.6232 29.3744 22.6042 29.2909 22.6037H25.6364V19.7547C25.6635 19.4935 25.7903 19.2515 25.992 19.0759C26.1937 18.9003 26.4559 18.8037 26.7273 18.805H29.4545C29.5992 18.805 29.7379 18.7494 29.8402 18.6505C29.9425 18.5515 30 18.4173 30 18.2774V15.5338Z" fill="#FFF9F0"/>
</svg>
