<svg width="53" height="53" viewBox="0 0 53 53" fill="none" xmlns="http://www.w3.org/2000/svg">
<circle cx="26.5" cy="26.5" r="26" stroke="#FFF9F0"/>
<path fill-rule="evenodd" clip-rule="evenodd" d="M22.5834 17.057C23.5965 17.0104 23.9195 17 26.5 17C29.0805 17 29.4035 17.0112 30.4157 17.057C31.4279 17.1028 32.1188 17.2643 32.7234 17.4983C33.3564 17.7375 33.9307 18.1115 34.4057 18.5951C34.8894 19.0693 35.2625 19.6427 35.5008 20.2766C35.7357 20.8812 35.8964 21.5721 35.943 22.5825C35.9896 23.5973 36 23.9203 36 26.5C36 29.0805 35.9888 29.4035 35.943 30.4166C35.8972 31.427 35.7357 32.118 35.5008 32.7225C35.2624 33.3565 34.8887 33.9309 34.4057 34.4057C33.9307 34.8894 33.3564 35.2625 32.7234 35.5008C32.1188 35.7357 31.4279 35.8964 30.4175 35.943C29.4035 35.9896 29.0805 36 26.5 36C23.9195 36 23.5965 35.9888 22.5834 35.943C21.573 35.8972 20.882 35.7357 20.2775 35.5008C19.6435 35.2624 19.0691 34.8887 18.5943 34.4057C18.111 33.9313 17.737 33.3572 17.4983 32.7234C17.2643 32.1188 17.1036 31.4279 17.057 30.4175C17.0104 29.4027 17 29.0797 17 26.5C17 23.9195 17.0112 23.5965 17.057 22.5843C17.1028 21.5721 17.2643 20.8812 17.4983 20.2766C17.7373 19.6428 18.1116 19.0687 18.5951 18.5943C19.0693 18.1111 19.6431 17.7371 20.2766 17.4983C20.8812 17.2643 21.5721 17.1036 22.5825 17.057H22.5834ZM30.3389 18.767C29.337 18.7212 29.0365 18.7117 26.5 18.7117C23.9635 18.7117 23.663 18.7212 22.6611 18.767C21.7345 18.8093 21.2318 18.9639 20.8967 19.0943C20.4537 19.267 20.1367 19.4717 19.8042 19.8042C19.489 20.1109 19.2465 20.4842 19.0943 20.8967C18.9639 21.2318 18.8093 21.7345 18.767 22.6611C18.7212 23.663 18.7117 23.9635 18.7117 26.5C18.7117 29.0365 18.7212 29.337 18.767 30.3389C18.8093 31.2655 18.9639 31.7682 19.0943 32.1033C19.2463 32.5152 19.489 32.8892 19.8042 33.1958C20.1108 33.511 20.4848 33.7537 20.8967 33.9057C21.2318 34.0361 21.7345 34.1907 22.6611 34.233C23.663 34.2788 23.9626 34.2883 26.5 34.2883C29.0374 34.2883 29.337 34.2788 30.3389 34.233C31.2655 34.1907 31.7682 34.0361 32.1033 33.9057C32.5463 33.733 32.8633 33.5283 33.1958 33.1958C33.511 32.8892 33.7537 32.5152 33.9057 32.1033C34.0361 31.7682 34.1907 31.2655 34.233 30.3389C34.2788 29.337 34.2883 29.0365 34.2883 26.5C34.2883 23.9635 34.2788 23.663 34.233 22.6611C34.1907 21.7345 34.0361 21.2318 33.9057 20.8967C33.733 20.4537 33.5283 20.1367 33.1958 19.8042C32.8891 19.4891 32.5158 19.2465 32.1033 19.0943C31.7682 18.9639 31.2655 18.8093 30.3389 18.767ZM25.2866 29.4286C25.9643 29.7107 26.7188 29.7488 27.4214 29.5363C28.1241 29.3239 28.7311 28.8741 29.1389 28.2638C29.5468 27.6534 29.73 26.9205 29.6575 26.19C29.5849 25.4596 29.2611 24.777 28.7411 24.2589C28.4097 23.9276 28.009 23.674 27.5677 23.5163C27.1265 23.3585 26.6558 23.3005 26.1895 23.3465C25.7232 23.3925 25.2729 23.5413 24.871 23.7822C24.4691 24.0232 24.1256 24.3502 23.8653 24.7398C23.605 25.1294 23.4343 25.5718 23.3654 26.0353C23.2966 26.4988 23.3314 26.9718 23.4674 27.4202C23.6033 27.8686 23.837 28.2813 24.1515 28.6286C24.4661 28.9759 24.8538 29.2491 25.2866 29.4286ZM23.0472 23.0472C23.5006 22.5938 24.0389 22.2341 24.6313 21.9887C25.2238 21.7433 25.8588 21.617 26.5 21.617C27.1412 21.617 27.7762 21.7433 28.3687 21.9887C28.9611 22.2341 29.4994 22.5938 29.9528 23.0472C30.4062 23.5006 30.7659 24.0389 31.0113 24.6313C31.2567 25.2238 31.383 25.8588 31.383 26.5C31.383 27.1412 31.2567 27.7762 31.0113 28.3687C30.7659 28.9611 30.4062 29.4994 29.9528 29.9528C29.0371 30.8686 27.7951 31.383 26.5 31.383C25.2049 31.383 23.9629 30.8686 23.0472 29.9528C22.1314 29.0371 21.617 27.7951 21.617 26.5C21.617 25.2049 22.1314 23.9629 23.0472 23.0472ZM32.466 22.3442C32.5784 22.2382 32.6683 22.1107 32.7305 21.9693C32.7928 21.828 32.826 21.6755 32.8282 21.5211C32.8305 21.3666 32.8017 21.2133 32.7436 21.0702C32.6856 20.927 32.5994 20.797 32.4901 20.6878C32.3809 20.5785 32.2509 20.4923 32.1078 20.4343C31.9646 20.3762 31.8113 20.3474 31.6568 20.3497C31.5024 20.3519 31.35 20.3852 31.2086 20.4474C31.0672 20.5096 30.9397 20.5995 30.8337 20.7119C30.6276 20.9304 30.5147 21.2207 30.5191 21.5211C30.5235 21.8215 30.6448 22.1083 30.8572 22.3207C31.0696 22.5332 31.3565 22.6544 31.6568 22.6588C31.9572 22.6632 32.2475 22.5503 32.466 22.3442Z" fill="#FFF9F0"/>
</svg>
