<svg width="48" height="48" viewBox="0 0 48 48" fill="none" xmlns="http://www.w3.org/2000/svg">
<circle cx="24" cy="24" r="23.5" stroke="#FFF9F0"/>
<g clip-path="url(#clip0_665_5516)">
<path d="M34.7926 20.3C34.7926 20.3 34.5878 18.8523 33.9565 18.2171C33.1572 17.381 32.2621 17.3758 31.8526 17.3272C28.9165 17.1133 24.5065 17.1133 24.5065 17.1133H24.4986C24.4986 17.1133 20.0899 17.1133 17.1526 17.3272C16.7418 17.3771 15.8479 17.381 15.0486 18.2171C14.4173 18.8523 14.2165 20.3 14.2165 20.3C14.2165 20.3 14.0078 21.9984 14.0078 23.7007V25.2928C14.0078 26.9912 14.2165 28.6935 14.2165 28.6935C14.2165 28.6935 14.4212 30.1412 15.0486 30.7777C15.8479 31.6138 16.8979 31.5862 17.3665 31.6755C19.0478 31.8356 24.5078 31.8842 24.5078 31.8842C24.5078 31.8842 28.9217 31.8763 31.8578 31.6663C32.2686 31.6177 33.1624 31.6125 33.9618 30.7764C34.5931 30.1412 34.7978 28.6922 34.7978 28.6922C34.7978 28.6922 35.0065 26.9938 35.0065 25.2915V23.6994C35.0026 22.001 34.7939 20.2987 34.7939 20.2987L34.7926 20.3ZM22.3317 27.2235V21.3212L28.0043 24.2822L22.3317 27.2235Z" fill="#FFF9F0"/>
</g>
<defs>
<clipPath id="clip0_665_5516">
<rect width="21" height="21" fill="white" transform="translate(14 14)"/>
</clipPath>
</defs>
</svg>
